<svg width="259" height="98" viewBox="0 0 259 98" fill="none" xmlns="http://www.w3.org/2000/svg">
<path d="M29.872 78.352C27.9093 78.352 26.3947 77.712 25.328 76.432C24.304 75.1947 23.792 73.552 23.792 71.504C23.792 69.8827 24.0693 68.304 24.624 66.768C24.7093 66.4693 24.7947 66.1067 24.88 65.68C25.008 65.2107 25.136 64.6773 25.264 64.08C25.4347 63.056 25.8827 61.8613 26.608 60.496C26.096 61.008 25.5627 61.4347 25.008 61.776C24.496 62.0747 24.1547 62.224 23.984 62.224C23.6 62.224 23.2587 62.096 22.96 61.84C22.6613 61.5413 22.5333 61.136 22.576 60.624C22.7893 59.1307 23.3227 58.1493 24.176 57.68C25.072 57.168 26.2453 56.6987 27.696 56.272C27.7813 56.2293 27.9307 56.1867 28.144 56.144C28.3573 56.1013 28.6347 56.0587 28.976 56.016C29.3173 55.9307 29.5947 55.8453 29.808 55.76C30.064 55.6747 30.2347 55.6107 30.32 55.568C33.008 50.9173 36.08 47.056 39.536 43.984C42.992 40.8267 46.6187 38.48 50.416 36.944C54.256 35.3653 58.0533 34.576 61.808 34.576C63.1307 34.576 64.3253 34.896 65.392 35.536C66.5013 36.176 67.056 37.0293 67.056 38.096C67.056 38.48 67.0133 38.8 66.928 39.056C66.416 40.6347 65.9253 41.8507 65.456 42.704C65.0293 43.5147 64.432 44.304 63.664 45.072C63.1947 45.5413 62.6613 45.776 62.064 45.776C61.552 45.776 61.296 45.52 61.296 45.008C61.296 44.624 61.4453 44.1547 61.744 43.6C61.8293 43.5147 61.9573 43.408 62.128 43.28C62.2987 43.1093 62.4907 42.9387 62.704 42.768C63.5147 42.0853 64.1333 41.4667 64.56 40.912C65.0293 40.3573 65.4133 39.6533 65.712 38.8C66.0107 37.904 65.6693 37.2853 64.688 36.944C63.7067 36.6027 62.5547 36.432 61.232 36.432C58.0747 36.432 54.8107 37.2 51.44 38.736C48.112 40.272 44.8267 42.448 41.584 45.264C38.384 48.08 35.4187 51.408 32.688 55.248C33.6267 54.7787 34.5227 54.3733 35.376 54.032C36.272 53.648 37.1467 53.3067 38 53.008C38.256 52.9227 38.64 52.7947 39.152 52.624C39.7067 52.4533 40.3893 52.2827 41.2 52.112L43.12 51.664C45.2107 51.1947 47.152 50.832 48.944 50.576C50.7787 50.2773 52.4427 50.128 53.936 50.128C56.6667 50.128 58.6293 50.5333 59.824 51.344C60.208 51.6 60.208 51.8347 59.824 52.048C59.568 52.1333 59.376 52.176 59.248 52.176C59.0347 52.176 58.8 52.112 58.544 51.984C57.7333 51.472 56.56 51.216 55.024 51.216C52.464 51.216 48.4533 51.984 42.992 53.52C41.84 53.8187 40.496 54.3093 38.96 54.992C37.4667 55.632 35.9733 56.336 34.48 57.104C33.0293 57.872 31.7493 58.5973 30.64 59.28C29.7867 60.688 29.1253 61.904 28.656 62.928C28.1867 63.952 27.7173 65.232 27.248 66.768C26.736 68.304 26.48 69.7333 26.48 71.056C26.48 72.72 26.864 74.0427 27.632 75.024C28.4427 76.0053 29.616 76.496 31.152 76.496C33.4987 76.496 36.272 76.0053 39.472 75.024C42.6293 74 45.6373 72.6987 48.496 71.12C51.3973 69.4987 53.6587 67.8773 55.28 66.256C55.792 65.744 56.1973 65.5947 56.496 65.808L56.56 66C56.56 66.2133 56.3893 66.4907 56.048 66.832C54.3413 68.5387 51.888 70.3093 48.688 72.144C46.5973 73.3387 44.4213 74.4053 42.16 75.344C39.8987 76.2827 37.7013 77.008 35.568 77.52C33.4773 78.0747 31.5787 78.352 29.872 78.352ZM58.5335 75.28C57.5095 75.28 56.7202 74.96 56.1655 74.32C55.6535 73.7227 55.3975 72.9333 55.3975 71.952C55.3975 70.2027 56.0375 68.496 57.3175 66.832C58.3415 65.5093 59.4722 64.3147 60.7095 63.248C61.9895 62.1387 63.2268 61.264 64.4215 60.624C65.6588 59.9413 66.7042 59.6 67.5575 59.6C68.3682 59.6 68.9015 59.9413 69.1575 60.624C69.3282 60.9653 69.4135 61.3707 69.4135 61.84C69.4135 62.6933 69.0935 63.12 68.4535 63.12C68.1548 63.12 67.8775 62.992 67.6215 62.736C67.4082 62.4373 67.3015 62.032 67.3015 61.52C66.8322 61.3067 66.1922 61.4133 65.3815 61.84C64.6135 62.224 63.8028 62.8 62.9495 63.568C62.0962 64.2933 61.2855 65.0827 60.5175 65.936C59.7495 66.7467 59.1522 67.4507 58.7255 68.048C57.9575 69.1147 57.5735 70.288 57.5735 71.568C57.5735 72.1653 57.7228 72.656 58.0215 73.04C58.3202 73.424 58.7682 73.616 59.3655 73.616C59.9202 73.616 60.5815 73.4453 61.3495 73.104C61.9042 72.8053 62.4162 72.528 62.8855 72.272C63.3975 72.016 63.8668 71.7813 64.2935 71.568C66.9388 70.0747 68.4322 69.328 68.7735 69.328C68.9015 69.328 68.9655 69.392 68.9655 69.52C68.9655 69.648 68.8588 69.8187 68.6455 70.032C68.2188 70.416 67.5362 70.9493 66.5975 71.632C65.6588 72.3147 64.6562 72.9547 63.5895 73.552C62.5228 74.1493 61.5415 74.5973 60.6455 74.896C59.8348 75.152 59.1308 75.28 58.5335 75.28ZM70.594 78.224C70.1247 78.224 69.7193 78.0747 69.378 77.776C69.0793 77.4773 68.9513 77.1147 68.994 76.688C69.0793 74.9387 69.3993 73.2533 69.954 71.632C70.5513 70.0107 71.4047 68.0693 72.514 65.808C72.642 65.5093 72.7487 65.2533 72.834 65.04C72.962 64.784 73.0687 64.5707 73.154 64.4C74.0927 62.3947 75.0527 60.4747 76.034 58.64C77.0153 56.8053 77.9967 55.0133 78.978 53.264L79.874 51.664C80.898 49.8293 81.794 48.3573 82.562 47.248C83.33 46.096 84.098 45.264 84.866 44.752C85.8473 44.1547 86.4447 43.856 86.658 43.856C86.9993 43.856 87.3407 44.1547 87.682 44.752C87.8953 45.1787 87.4687 46.224 86.402 47.888C85.8473 48.7413 85.1433 49.808 84.29 51.088C83.4793 52.368 82.498 53.8187 81.346 55.44C81.1327 55.7387 80.77 56.272 80.258 57.04C79.7887 57.7653 79.1487 58.7253 78.338 59.92C77.5273 61.1147 76.8233 62.2027 76.226 63.184C75.6287 64.1227 75.138 64.9547 74.754 65.68C73.986 67.088 73.2607 68.6027 72.578 70.224C71.8953 71.8027 71.554 73.04 71.554 73.936C71.554 74.7467 71.874 75.152 72.514 75.152C73.538 75.152 75.1807 74.2773 77.442 72.528C77.698 72.5707 77.826 72.6987 77.826 72.912C77.826 73.0827 77.6127 73.3813 77.186 73.808C76.802 74.192 76.3113 74.5973 75.714 75.024C75.1593 75.4933 74.498 76.0267 73.73 76.624L72.706 77.392C72.0233 77.9467 71.3193 78.224 70.594 78.224ZM90.389 75.728C90.3037 75.728 90.2183 75.7067 90.133 75.664C90.0477 75.664 89.9623 75.6427 89.877 75.6C89.2797 75.3013 88.8957 74.8747 88.725 74.32C88.5543 73.7653 88.5117 73.0613 88.597 72.208C88.6823 71.8667 88.7677 71.2693 88.853 70.416C88.981 69.5627 89.1303 68.88 89.301 68.368L86.037 71.504L84.245 73.232C83.0077 74.4693 81.9837 75.088 81.173 75.088C80.8317 75.088 80.5543 74.96 80.341 74.704C79.957 74.2347 79.765 73.6587 79.765 72.976C79.765 72.08 79.9997 71.12 80.469 70.096C80.9383 69.072 81.493 68.0907 82.133 67.152C82.773 66.1707 83.349 65.36 83.861 64.72C85.141 63.1413 86.3783 61.904 87.573 61.008C88.8103 60.112 90.0903 59.664 91.413 59.664C92.1383 59.664 92.8423 59.792 93.525 60.048C94.2503 60.304 94.9117 60.7307 95.509 61.328L95.573 61.392C95.573 61.52 95.4663 61.648 95.253 61.776C95.1677 61.8613 95.0823 61.9253 94.997 61.968C94.9543 62.0107 94.9117 62.0533 94.869 62.096C94.357 62.608 93.781 63.4613 93.141 64.656C92.501 65.8507 91.9463 67.1093 91.477 68.432C91.0077 69.712 90.773 70.8213 90.773 71.76C90.773 72.6133 90.9863 73.1893 91.413 73.488C91.6263 73.616 91.861 73.68 92.117 73.68C92.6717 73.68 93.4397 73.3387 94.421 72.656C94.4637 72.6133 94.549 72.5493 94.677 72.464C94.8477 72.336 95.0823 72.1653 95.381 71.952C95.7223 71.696 95.9997 71.568 96.213 71.568C96.4263 71.568 96.533 71.6533 96.533 71.824C96.533 72.08 96.3623 72.3787 96.021 72.72C95.765 72.9333 95.4663 73.168 95.125 73.424C94.8263 73.68 94.4637 73.936 94.037 74.192C93.397 74.6613 92.7357 75.024 92.053 75.28C91.3703 75.5787 90.8157 75.728 90.389 75.728ZM83.157 71.632C84.053 71.632 85.717 70.3093 88.149 67.664C88.789 66.9387 89.365 66.256 89.877 65.616C90.389 64.9333 90.8583 64.272 91.285 63.632C92.053 62.3947 92.309 61.5413 92.053 61.072C91.925 60.816 91.669 60.688 91.285 60.688C90.8157 60.688 90.1757 60.944 89.365 61.456C88.5543 61.9253 87.7223 62.544 86.869 63.312C86.0583 64.08 85.3117 64.848 84.629 65.616C84.1597 66.2133 83.6903 67.0453 83.221 68.112C82.7517 69.1787 82.517 70.0533 82.517 70.736C82.517 71.3333 82.7303 71.632 83.157 71.632ZM96.667 79.952C96.4537 79.952 96.347 79.76 96.347 79.376C96.347 79.2907 96.347 79.1627 96.347 78.992C96.3897 78.864 96.4323 78.7147 96.475 78.544L99.227 71.632L102.491 63.568C101.979 63.5253 101.232 63.5467 100.251 63.632C99.2697 63.6747 98.4377 63.76 97.755 63.888C97.499 63.9307 97.2857 63.9733 97.115 64.016C96.987 64.016 96.8803 64.016 96.795 64.016C96.4537 64.016 96.219 63.8667 96.091 63.568C96.1337 63.312 96.3683 63.0773 96.795 62.864C97.0083 62.7787 97.2643 62.7147 97.563 62.672C97.8617 62.5867 98.2243 62.5013 98.651 62.416C99.1203 62.3307 99.5257 62.2667 99.867 62.224C100.251 62.1813 100.528 62.1387 100.699 62.096C100.912 62.0533 101.126 62.0107 101.339 61.968C101.552 61.9253 101.808 61.8827 102.107 61.84C102.363 61.7973 102.64 61.7547 102.939 61.712C103.238 61.6693 103.558 61.6053 103.899 61.52C104.24 61.0507 104.752 60.2187 105.435 59.024C106.118 57.8293 106.992 56.2507 108.059 54.288C108.912 52.7093 109.595 51.472 110.107 50.576C110.662 49.6373 111.046 49.0187 111.259 48.72C111.643 48.208 112.091 47.952 112.603 47.952C112.859 47.952 112.987 48.0587 112.987 48.272C112.987 48.3147 112.88 48.592 112.667 49.104C112.411 49.5307 111.984 50.32 111.387 51.472C110.79 52.624 110.15 53.8827 109.467 55.248C108.784 56.6133 108.166 57.8933 107.611 59.088C107.056 60.2827 106.672 61.1573 106.459 61.712C106.672 61.6693 106.907 61.648 107.163 61.648C107.462 61.648 107.824 61.648 108.251 61.648C108.72 61.648 109.147 61.6693 109.531 61.712C109.958 61.712 110.32 61.7333 110.619 61.776C111.216 61.904 111.515 62.0747 111.515 62.288C111.515 62.3733 111.323 62.5227 110.939 62.736C110.726 62.8213 110.32 62.9067 109.723 62.992C109.126 63.0773 108.336 63.1627 107.355 63.248C107.099 63.248 106.822 63.2693 106.523 63.312C106.224 63.312 105.904 63.3333 105.563 63.376C104.283 65.4667 102.534 68.944 100.315 73.808C99.5043 75.4293 98.8857 76.688 98.459 77.584C98.0323 78.48 97.7763 79.0133 97.691 79.184C97.307 79.696 96.9657 79.952 96.667 79.952ZM130.904 78.8C130.264 78.8 129.795 78.48 129.496 77.84C129.453 77.7973 129.432 77.6693 129.432 77.456C129.432 77.2427 129.539 76.752 129.752 75.984C129.837 75.7707 129.901 75.5573 129.944 75.344C130.029 75.1307 130.115 74.9173 130.2 74.704C130.285 74.4907 130.371 74.256 130.456 74C130.541 73.7013 130.627 73.4027 130.712 73.104C130.883 72.464 130.968 71.9307 130.968 71.504C130.968 70.9067 130.776 70.608 130.392 70.608C130.264 70.608 130.029 70.7147 129.688 70.928C129.133 71.3547 128.536 71.76 127.896 72.144C127.299 72.528 126.659 72.8907 125.976 73.232L123.928 74.32L122.584 75.088C122.456 75.1307 122.157 75.3227 121.688 75.664C121.261 75.92 120.813 76.048 120.344 76.048C119.789 76.048 119.171 75.7493 118.488 75.152C117.976 74.64 117.72 74.1067 117.72 73.552C117.72 73.0827 117.955 72.4213 118.424 71.568C118.765 71.0133 119.341 70.3307 120.152 69.52C120.493 69.1787 120.771 68.88 120.984 68.624C121.24 68.3253 121.453 68.0907 121.624 67.92C123.416 65.5307 126.189 63.4187 129.944 61.584C131.011 61.0293 131.971 60.752 132.824 60.752C133.763 60.752 134.509 61.136 135.064 61.904C135.32 61.392 135.725 60.6667 136.28 59.728C136.877 58.7467 137.517 57.68 138.2 56.528C138.925 55.376 139.608 54.288 140.248 53.264C140.931 52.24 141.464 51.4507 141.848 50.896C143 49.3173 143.939 48.1227 144.664 47.312C145.389 46.544 146.051 46.16 146.648 46.16C146.861 46.16 147.139 46.2667 147.48 46.48C147.779 46.736 147.928 47.0773 147.928 47.504C147.928 48.144 147.651 48.8907 147.096 49.744C146.541 50.5973 145.773 51.6427 144.792 52.88C144.707 53.008 144.579 53.1787 144.408 53.392C144.237 53.5627 144.045 53.7973 143.832 54.096C143.363 54.7787 142.872 55.504 142.36 56.272C141.848 56.9973 141.293 57.7227 140.696 58.448C139.843 59.5573 138.947 60.7733 138.008 62.096C137.069 63.376 136.195 64.72 135.384 66.128C134.659 67.408 134.04 68.7307 133.528 70.096C133.016 71.4187 132.589 72.7627 132.248 74.128C132.205 74.4267 132.163 74.6613 132.12 74.832C132.12 75.0453 132.12 75.1947 132.12 75.28L132.184 76.24C132.227 76.368 132.248 76.6667 132.248 77.136C132.248 78.2453 131.8 78.8 130.904 78.8ZM122.136 73.296C122.605 73.296 123.032 73.2107 123.416 73.04C125.037 72.4853 126.573 71.7813 128.024 70.928C129.475 70.0747 131.011 68.9227 132.632 67.472C132.845 66.8747 133.101 66.2347 133.4 65.552C133.699 64.8693 134.019 64.1227 134.36 63.312C133.848 62.2453 133.101 61.712 132.12 61.712C131.48 61.712 130.797 61.9253 130.072 62.352C129.347 62.7787 128.536 63.3547 127.64 64.08C126.787 64.7627 125.912 65.5307 125.016 66.384C124.163 67.2373 123.416 68.0693 122.776 68.88C122.136 69.648 121.688 70.288 121.432 70.8C121.176 71.2267 121.048 71.7173 121.048 72.272C121.048 72.9547 121.411 73.296 122.136 73.296ZM141.8 74.704C140.904 74.704 140.115 74.4693 139.432 74C138.323 73.1467 137.768 71.8667 137.768 70.16C137.768 68.4533 138.365 66.64 139.56 64.72C140.755 62.8 142.568 61.0293 145 59.408C145.427 59.1093 146.003 58.96 146.728 58.96C147.667 58.96 148.499 59.216 149.224 59.728C149.992 60.24 150.291 60.9013 150.12 61.712C149.821 63.0347 149.16 64.208 148.136 65.232C147.155 66.256 145.981 67.1733 144.616 67.984C143.293 68.752 141.928 69.4987 140.52 70.224C140.477 70.352 140.435 70.48 140.392 70.608C140.392 70.736 140.392 70.864 140.392 70.992C140.392 71.5893 140.584 72.1227 140.968 72.592C141.395 73.0187 141.971 73.232 142.696 73.232C143.251 73.232 143.72 73.1467 144.104 72.976C144.787 72.72 145.341 72.4853 145.768 72.272C146.237 72.0587 146.771 71.7387 147.368 71.312C147.965 70.8853 148.776 70.2453 149.8 69.392C150.269 69.0507 150.547 68.88 150.632 68.88C150.888 68.88 150.973 69.072 150.888 69.456C150.461 70.1387 149.715 70.8853 148.648 71.696C147.624 72.5067 146.472 73.2107 145.192 73.808C143.955 74.4053 142.824 74.704 141.8 74.704ZM140.904 68.496C141.245 68.496 141.949 68.1547 143.016 67.472C144.083 66.7893 145.085 66.0427 146.024 65.232C147.645 63.7387 148.456 62.5867 148.456 61.776C148.456 61.5627 148.392 61.3707 148.264 61.2C148.136 60.9867 147.944 60.88 147.688 60.88C146.877 60.88 145.512 61.84 143.592 63.76C142.269 65.04 141.373 66.6187 140.904 68.496ZM181.227 78.864C180.374 78.864 179.947 78.4373 179.947 77.584C179.947 76.8587 180.203 76.0907 180.715 75.28C181.782 73.5733 182.699 72.1227 183.467 70.928C184.235 69.7333 184.832 68.7947 185.259 68.112C187.691 60.688 188.907 54.0533 188.907 48.208C188.907 44.4107 188.395 41.424 187.371 39.248C186.347 37.0293 184.939 35.92 183.147 35.92C181.526 35.92 179.819 36.4533 178.027 37.52C176.235 38.5867 174.486 40.016 172.779 41.808C171.072 43.6 169.536 45.584 168.171 47.76C167.062 49.4667 166.187 51.1307 165.547 52.752C164.95 54.3733 164.651 55.76 164.651 56.912C164.651 58.832 165.504 59.792 167.211 59.792C168.32 59.792 169.536 59.4293 170.859 58.704C172.182 57.9787 173.611 56.9973 175.147 55.76C175.488 55.504 175.744 55.376 175.915 55.376C176 55.376 176.043 55.4187 176.043 55.504C176.043 55.6747 175.915 55.9307 175.659 56.272C175.104 56.912 174.272 57.616 173.163 58.384C172.096 59.152 170.966 59.8347 169.771 60.432C168.619 60.9867 167.595 61.264 166.699 61.264C165.12 61.264 163.862 60.7093 162.923 59.6C162.027 58.4907 161.579 57.104 161.579 55.44C161.579 54.2027 161.835 52.9867 162.347 51.792C162.944 50.4693 163.691 49.1467 164.587 47.824C165.526 46.5013 166.592 45.1787 167.787 43.856C169.408 42.064 171.136 40.5067 172.971 39.184C174.806 37.8187 176.64 36.752 178.475 35.984C180.31 35.216 182.038 34.832 183.659 34.832C186.347 34.832 188.267 36.0693 189.419 38.544C190.614 41.0187 191.211 44.1973 191.211 48.08C191.211 49.9573 191.083 51.8987 190.827 53.904C190.614 55.8667 190.294 57.7013 189.867 59.408C189.483 61.1147 189.035 62.544 188.523 63.696C190.571 61.0933 192.747 58.4693 195.051 55.824C197.355 53.136 199.68 50.6187 202.027 48.272C204.416 45.8827 206.763 43.7493 209.067 41.872C211.414 39.9947 213.632 38.5227 215.723 37.456C217.856 36.3893 219.776 35.856 221.483 35.856C222.464 35.856 222.955 36.3253 222.955 37.264C222.955 38.0747 222.464 39.2267 221.483 40.72C221.184 41.104 220.907 41.296 220.651 41.296C220.352 41.296 220.203 41.1467 220.203 40.848C220.203 40.6347 220.31 40.3573 220.523 40.016C220.608 39.888 220.715 39.696 220.843 39.44C220.971 39.184 221.035 38.9493 221.035 38.736C221.035 38.3947 220.843 38.1387 220.459 37.968C220.16 37.84 219.776 37.776 219.307 37.776C217.216 37.776 214.336 39.2907 210.667 42.32C208.832 43.856 206.955 45.5413 205.035 47.376C203.158 49.168 201.366 51.0027 199.659 52.88C197.995 54.7147 196.48 56.464 195.115 58.128C193.792 59.7493 192.747 61.136 191.979 62.288C191.552 62.928 191.104 63.632 190.635 64.4C190.166 65.1253 189.675 65.9147 189.163 66.768L187.563 69.328C187.264 70.1813 186.923 71.0987 186.539 72.08C186.198 73.0187 185.792 74.0427 185.323 75.152C184.811 76.3467 184.171 77.264 183.403 77.904C182.635 78.544 181.91 78.864 181.227 78.864ZM200.057 59.984C199.502 59.984 199.225 59.856 199.225 59.6C199.225 59.3867 199.374 59.088 199.673 58.704C200.014 58.2773 200.398 57.9147 200.825 57.616C201.763 57.0187 202.489 56.5067 203.001 56.08C203.555 55.6533 204.217 54.928 204.985 53.904C205.027 53.9893 205.049 54.16 205.049 54.416C205.049 54.9707 204.814 55.6533 204.345 56.464C203.918 57.232 203.427 57.936 202.873 58.576C202.318 59.216 201.827 59.6213 201.401 59.792C201.017 59.92 200.569 59.984 200.057 59.984ZM194.361 75.664C194.019 75.664 193.699 75.536 193.401 75.28C193.102 75.024 192.953 74.6827 192.953 74.256C192.953 73.36 193.571 71.7173 194.809 69.328L195.513 67.92C195.598 67.8347 195.705 67.6213 195.833 67.28C196.003 66.9387 196.238 66.4907 196.536 65.936C196.835 65.3387 197.07 64.8053 197.241 64.336C197.411 63.8667 197.539 63.4187 197.625 62.992C197.625 62.9493 197.71 62.864 197.881 62.736C198.051 62.608 198.222 62.5013 198.393 62.416L198.777 62.352C199.118 62.352 199.395 62.416 199.609 62.544C199.865 62.672 199.95 62.8427 199.865 63.056C199.566 63.696 199.31 64.2507 199.097 64.72C198.883 65.1893 198.713 65.5947 198.585 65.936H198.521C198.051 67.0027 197.646 68.0267 197.305 69.008C197.006 69.9467 196.878 70.8427 196.921 71.696L196.985 73.424C196.942 73.8507 196.793 74.2133 196.536 74.512C196.366 74.64 196.131 74.7893 195.833 74.96C195.534 75.1733 195.15 75.3867 194.681 75.6C194.638 75.6427 194.531 75.664 194.361 75.664ZM204.113 74.704C203.217 74.704 202.427 74.4693 201.745 74C200.635 73.1467 200.081 71.8667 200.081 70.16C200.081 68.4533 200.678 66.64 201.873 64.72C203.067 62.8 204.881 61.0293 207.312 59.408C207.739 59.1093 208.315 58.96 209.041 58.96C209.979 58.96 210.811 59.216 211.537 59.728C212.305 60.24 212.603 60.9013 212.433 61.712C212.134 63.0347 211.473 64.208 210.449 65.232C209.467 66.256 208.294 67.1733 206.929 67.984C205.606 68.752 204.241 69.4987 202.833 70.224C202.79 70.352 202.747 70.48 202.705 70.608C202.705 70.736 202.705 70.864 202.705 70.992C202.705 71.5893 202.897 72.1227 203.281 72.592C203.707 73.0187 204.283 73.232 205.009 73.232C205.563 73.232 206.033 73.1467 206.417 72.976C207.099 72.72 207.654 72.4853 208.081 72.272C208.55 72.0587 209.083 71.7387 209.681 71.312C210.278 70.8853 211.089 70.2453 212.113 69.392C212.582 69.0507 212.859 68.88 212.945 68.88C213.201 68.88 213.286 69.072 213.201 69.456C212.774 70.1387 212.027 70.8853 210.961 71.696C209.937 72.5067 208.785 73.2107 207.505 73.808C206.267 74.4053 205.137 74.704 204.113 74.704ZM203.217 68.496C203.558 68.496 204.262 68.1547 205.329 67.472C206.395 66.7893 207.398 66.0427 208.337 65.232C209.958 63.7387 210.769 62.5867 210.769 61.776C210.769 61.5627 210.705 61.3707 210.577 61.2C210.449 60.9867 210.257 60.88 210.001 60.88C209.19 60.88 207.825 61.84 205.905 63.76C204.582 65.04 203.686 66.6187 203.217 68.496Z" fill="#0C2461"/>
<path d="M220.972 33.3928L221 29" stroke="#0C2461" stroke-linecap="round"/>
<path d="M225 37.0702L230.007 37" stroke="#0C2461" stroke-linecap="round"/>
<path d="M224.111 34.6059L230.885 28.8584" stroke="#0C2461" stroke-linecap="round"/>
<path d="M32 60C36 53.1429 44.4999 40.5 57.5 39" stroke="#0C2461" stroke-linecap="square"/>
</svg>
