<?xml version="1.0" standalone="no"?>
<!DOCTYPE svg PUBLIC "-//W3C//DTD SVG 20010904//EN"
 "http://www.w3.org/TR/2001/REC-SVG-20010904/DTD/svg10.dtd">
<svg version="1.0" xmlns="http://www.w3.org/2000/svg"
 width="80.000000pt" height="40.000000pt" viewBox="0 0 250.000000 80.000000"
 preserveAspectRatio="xMidYMid meet">

<g transform="translate(0.000000,80.000000) scale(0.100000,-0.100000)"
fill="#000000" stroke="none">
<path d="M1600 739 c0 -44 3 -60 13 -57 23 8 21 118 -3 118 -6 0 -10 -27 -10
-61z"/>
<path d="M1396 692 c-7 -12 50 -65 64 -60 8 2 3 15 -15 36 -27 33 -40 39 -49
24z"/>
<path d="M1777 672 c-30 -31 -33 -42 -14 -42 12 0 57 51 57 65 0 13 -18 3 -43
-23z"/>
<path d="M1535 651 c-50 -22 -91 -69 -105 -119 -13 -48 -13 -52 4 -52 8 0 16
15 19 35 12 76 72 125 152 125 80 0 136 -41 157 -117 15 -54 32 -56 25 -3 -10
79 -94 150 -177 150 -19 0 -53 -9 -75 -19z"/>
<path d="M1613 555 c-25 -18 -48 -75 -30 -75 7 0 18 13 25 29 22 50 95 47 108
-4 3 -14 12 -25 20 -25 23 0 16 30 -15 61 -33 32 -74 38 -108 14z"/>
<path d="M1325 510 c-4 -6 10 -10 34 -10 23 0 41 5 41 10 0 6 -15 10 -34 10
-19 0 -38 -4 -41 -10z"/>
<path d="M1644 505 c-6 -15 2 -35 14 -35 4 0 13 4 21 9 12 8 12 12 2 25 -17
20 -30 20 -37 1z"/>
<path d="M1840 510 c0 -5 14 -10 30 -10 17 0 30 5 30 10 0 6 -13 10 -30 10
-16 0 -30 -4 -30 -10z"/>
<path d="M805 430 l-200 -5 190 -7 c105 -5 227 -8 271 -8 l82 0 -19 -36 c-10
-20 -20 -42 -22 -47 -2 -6 -17 -12 -33 -13 -16 -1 -32 -3 -36 -3 -5 -1 -8 -5
-8 -11 0 -5 14 -10 30 -10 35 0 35 2 10 -74 -11 -33 -20 -71 -20 -86 0 -33
-33 -52 -68 -39 -22 8 -23 13 -17 58 7 53 -5 91 -31 91 -8 0 -38 -24 -67 -54
-58 -60 -111 -96 -143 -96 -36 0 -34 10 10 65 45 54 74 117 78 170 3 26 0 30
-21 30 -20 0 -33 -13 -63 -65 -21 -36 -45 -86 -53 -111 -14 -41 -22 -49 -65
-68 -59 -25 -118 -28 -127 -5 -7 18 33 107 59 131 17 15 18 15 18 -5 0 -11 -4
-24 -10 -27 -14 -9 -13 -68 2 -63 17 6 36 69 28 98 -18 68 -107 -11 -117 -104
-8 -66 7 -80 76 -72 30 4 70 16 88 27 19 12 35 20 36 18 23 -42 25 -44 63 -41
22 2 54 13 72 24 l32 20 0 -21 c0 -31 44 -39 78 -14 26 18 28 18 45 1 20 -21
55 -23 80 -3 16 12 21 11 37 -5 28 -28 76 -11 128 46 46 50 49 74 4 32 -15
-13 -43 -34 -63 -46 -64 -39 -78 11 -33 123 l26 65 48 0 c51 0 107 16 96 27
-3 4 -34 5 -67 4 -60 -2 -61 -2 -53 21 4 13 8 33 9 46 l0 22 245 1 c135 1 331
4 435 8 l190 6 -295 7 c-304 8 -588 8 -935 -2z m-51 -200 c-21 -38 -42 -70
-46 -70 -13 0 -9 15 18 66 44 81 57 99 62 86 2 -6 -13 -43 -34 -82z m179 -57
c-5 -39 -46 -87 -67 -80 -18 6 -13 22 21 71 40 56 54 58 46 9z"/>
<path d="M375 371 c-103 -31 -188 -134 -144 -178 7 -7 5 -20 -9 -43 -25 -40
-16 -80 20 -92 36 -12 125 15 169 51 18 16 32 31 29 34 -3 3 -36 -10 -74 -29
-79 -39 -111 -42 -126 -15 -8 16 -5 26 16 50 14 17 35 31 45 31 20 0 37 25 25
37 -3 3 -16 2 -28 -4 -49 -21 -62 9 -27 58 19 27 104 79 129 79 18 0 11 -26
-15 -50 -29 -27 -34 -63 -9 -58 47 9 78 113 39 127 -11 4 -29 5 -40 2z"/>
<path d="M1488 333 c-14 -28 -28 -63 -32 -77 -6 -23 -9 -24 -26 -14 -45 29
-130 -58 -130 -133 0 -45 12 -52 58 -33 23 9 42 20 42 25 0 17 22 9 40 -13 17
-21 20 -22 56 -9 28 10 39 11 42 2 4 -12 92 -16 92 -3 0 4 20 15 45 25 46 19
95 53 95 66 0 4 -31 -8 -70 -27 -38 -18 -86 -36 -107 -39 l-38 -5 47 33 c72
51 88 109 31 109 -28 0 -103 -69 -103 -95 0 -19 -46 -49 -65 -41 -16 6 -21 55
-7 72 19 21 63 155 60 181 -3 26 -5 25 -30 -24z m-72 -156 c-6 -29 -56 -87
-76 -87 -26 0 6 82 43 112 28 22 40 13 33 -25z m218 21 c-6 -16 -54 -52 -60
-46 -6 7 43 58 55 58 6 0 8 -6 5 -12z"/>
<path d="M1854 355 c-4 -8 0 -23 7 -32 10 -11 14 -50 15 -130 1 -63 4 -117 7
-120 4 -3 11 7 18 23 36 90 76 160 115 200 43 44 47 45 87 39 36 -7 40 -6 29
8 -18 22 -60 27 -92 10 -26 -13 -87 -81 -116 -129 -9 -15 -12 -7 -17 44 -7 65
-21 102 -38 102 -5 0 -12 -7 -15 -15z"/>
<path d="M2074 279 c-3 -6 1 -18 10 -27 15 -15 16 -14 16 11 0 27 -13 36 -26
16z"/>
<path d="M2193 219 c-21 -13 -38 -36 -49 -67 -20 -56 -38 -72 -77 -72 -31 0
-32 3 -12 68 6 16 3 22 -8 22 -10 0 -21 -15 -28 -40 -11 -35 -10 -42 6 -60 14
-16 26 -19 49 -14 17 3 35 10 40 15 5 4 28 6 51 2 34 -4 55 1 111 27 70 33
104 56 104 71 0 5 -29 -7 -65 -26 -64 -34 -175 -62 -130 -33 76 50 114 128 63
128 -13 0 -37 -10 -55 -21z m47 -17 c0 -14 -49 -56 -57 -49 -3 4 4 18 17 32
24 25 40 32 40 17z"/>
</g>
</svg>
